<svg xmlns="http://www.w3.org/2000/svg" viewBox="0 0 1200 620" role="img" aria-labelledby="title desc"><title id="title">ICMT global partnership map</title><desc id="desc">Stylised world map showing international collaboration points.</desc><defs><linearGradient id="ocean" x1="0" y1="0" x2="1" y2="1"><stop stop-color="#edf5fa"/><stop offset="1" stop-color="#dceaf3"/></linearGradient><filter id="shadow"><feDropShadow dx="0" dy="3" stdDeviation="5" flood-color="#587084" flood-opacity=".18"/></filter></defs><rect width="1200" height="620" rx="26" fill="url(#ocean)"/><g fill="#b8d2df" stroke="#fff" stroke-width="3" stroke-linejoin="round" filter="url(#shadow)"><path d="M72 137l55-53 99-28 89 12 54 41 52 6 42 37-18 42-53 14-31 42-54 8-19 46-40 15-28-28-45-17-29-44-50-23z"/><path d="M291 327l49 18 36 50-10 55-31 45-19 77-29-27-13-65-30-55 15-57z"/><path d="M514 126l44-28 63 9 31 29 62-17 79 12 68-22 113 17 78 41 63 13 23 37-35 30-76 3-54 33-69-6-48 31-63-13-43-35-53 5-30-38-52-8-42-29-45-9z"/><path d="M567 295l62-20 59 18 32 54-20 49-18 74-38 82-44-13-16-65-32-56-17-69z"/><path d="M932 424l52-31 76 11 49 47-19 58-70 22-65-21-34-42z"/><path d="M1056 548l21-8 16 13-20 18z"/><path d="M476 99l24-20 30 7-5 25-31 9z"/></g><g fill="#e5b83f" stroke="#fff" stroke-width="5"><circle cx="180" cy="170" r="11"/><circle cx="250" cy="235" r="11"/><circle cx="325" cy="395" r="11"/><circle cx="548" cy="175" r="11"/><circle cx="600" cy="215" r="11"/><circle cx="625" cy="350" r="11"/><circle cx="685" cy="430" r="11"/><circle cx="745" cy="260" r="11"/><circle cx="820" cy="305" r="11"/><circle cx="905" cy="235" r="11"/><circle cx="990" cy="460" r="11"/><circle cx="1030" cy="255" r="11"/></g><g fill="#071524" font-family="Arial,sans-serif"><text x="55" y="575" font-size="18" font-weight="700">ICMT GLOBAL COLLABORATION</text><text x="55" y="600" font-size="14" fill="#53697b">International education • knowledge exchange • healthcare development</text></g></svg>